# xmcd
#
# Track frame offsets:
# 150
# 12920
# 23693
# 36284
# 49927
# 63190
# 75033
# 85967
# 100780
# 115634
# 124887
# 138530
# 147783
#
# Disc length: 2163 seconds
#
#
# Revision: 0
# Processed by: cddbd v1.5.2PL0 Copyright (c) Steve Scherf et al.
# Submitted via: FreeRIP 2.944 
#
DISCID=9d08710d
DTITLE=Peter, Paul and Mary - The Best of Peter, Paul and Mary
DYEAR=1900
DGENRE=
TTITLE0=Blowin in the wind
TTITLE1=Too much of nothing
TTITLE2=Lemon tree
TTITLE3=Stewball
TTITLE4=Early morning rain
TTITLE5=500 miles
TTITLE6=I dig rock and roll music
TTITLE7=Leaving on a jet plane
TTITLE8=Puff (the magic dragon)
TTITLE9=For loving me
TTITLE10=don´t think twice
TTITLE11=If i had a hammer
TTITLE12=Day is done
EXTD=
EXTT0=
EXTT1=
EXTT2=
EXTT3=
EXTT4=
EXTT5=
EXTT6=
EXTT7=
EXTT8=
EXTT9=
EXTT10=
EXTT11=
EXTT12=
PLAYORDER=
